# xmcd
#
# Track frame offsets:
#	150
#	22408
#	38424
#	65110
#	80423
#	97479
#	120119
#	139903
#
# Disc length: 2147 seconds
#
# Revision: 0
# Processed by: cddbd v1.5.2PL0 Copyright (c) Steve Scherf et al.
# Submitted via: EZCDAudioConverter 2.1.5.1
#
DISCID=6e086108
DTITLE=Ryszard Rynkowski - Szczê¶liwej drogi ju¿  czas
DYEAR=1900
DGENRE=Blues
TTITLE0=Wypijmy za błędy
TTITLE1=Czemu nie tańczę na ulicach
TTITLE2=Szczęśliwej drogi już czas
TTITLE3=Swobodny blues
TTITLE4=Bez miłości
TTITLE5=Wszystko już  było prócz nas
TTITLE6=Inny nie będę
TTITLE7=Nie budźcie marzeń  ze snu
EXTD=
EXTT0=
EXTT1=
EXTT2=
EXTT3=
EXTT4=
EXTT5=
EXTT6=
EXTT7=
PLAYORDER=
